<svg xml:space="preserve" width="165" height="48" xmlns="http://www.w3.org/2000/svg"><path d="M36.785 24.024v-6.94a2.63 2.63 0 0 0-.175-.816l-7.694 7.756-7.915 7.921 7.701 7.71c.324-.114.645-.274.895-.51l6.506-6.51a2.742 2.742 0 0 0 .705-1.696z" fill="#35c500"/><path d="M5.341 31.721c.115.322.295.628.525.882l3.262 3.256 3.253 3.256a2.738 2.738 0 0 0 1.686.704h13.82a2.6 2.6 0 0 0 .815-.164L13.085 24.024z" fill="#cc2bff"/><path d="m13.085 24.024 7.916-7.922-7.739-7.744c-.322.113-.63.288-.881.52l-6.515 6.519a2.758 2.758 0 0 0-.696 1.687v13.824c.01.272.066.562.171.813z" fill="#ff2a4c"/><path d="M36.61 16.268a2.424 2.424 0 0 0-.53-.871l-3.253-3.255-3.253-3.263a2.793 2.793 0 0 0-1.694-.698H14.067a2.397 2.397 0 0 0-.811.18l15.66 15.663z" fill="#2985ff"/><path aria-label="Relogic Labs" d="M44.492 31.442V16.82h6.145c1.47 0 2.55.446 3.241 1.339.687.878 1.03 2.066 1.03 3.565 0 .983-.223 1.83-.672 2.542-.44.712-1.064 1.226-1.873 1.544.213.198.38.41.498.636.134.228.267.53.4.908l1.55 4.087h-2.784l-1.511-3.928c-.133-.334-.279-.569-.438-.705-.16-.135-.425-.204-.796-.204H47.18v4.837zm2.685-7.379h2.763c.702 0 1.252-.174 1.65-.522.398-.363.595-.97.595-1.816 0-.818-.171-1.416-.515-1.793-.343-.378-.868-.567-1.572-.568h-2.92zm14.214 7.606c-1.63 0-2.922-.462-3.876-1.385-.954-.94-1.432-2.355-1.432-4.245 0-1.712.398-3.066 1.192-4.063.81-1.015 2.009-1.522 3.598-1.522 1.46 0 2.573.438 3.34 1.315.783.863 1.175 1.999 1.175 3.407v1.95h-6.82c.145.864.49 1.455 1.032 1.773.557.317 1.34.476 2.346.476.506 0 1.017-.052 1.533-.158.53-.107.98-.243 1.35-.41v2.18a5.368 5.368 0 0 1-1.53.498 9.29 9.29 0 0 1-1.908.184zm-2.82-6.425h4.47v-.59c0-.621-.16-1.105-.478-1.452-.317-.365-.854-.548-1.61-.548-.888 0-1.51.205-1.868.614-.345.41-.516 1.067-.516 1.976zm11.31 6.425c-.915 0-1.584-.242-2.007-.726-.412-.486-.618-1.258-.618-2.315v-12.49h2.683v12.235c0 .38.066.644.198.796.134.135.326.204.577.204.345 0 .657-.053.934-.158v2.11c-.504.228-1.094.341-1.767.341zm8.012 0c-1.763 0-3.056-.484-3.877-1.453-.822-.984-1.233-2.37-1.233-4.156 0-1.786.411-3.163 1.233-4.131.835-.983 2.127-1.475 3.876-1.475 1.763 0 3.055.492 3.877 1.475.835.968 1.253 2.345 1.253 4.131 0 1.787-.411 3.171-1.234 4.155-.82.967-2.118 1.452-3.893 1.452zm0-2.61c.861 0 1.478-.22 1.848-.66.372-.454.557-1.233.557-2.336 0-1.106-.186-1.879-.557-2.318-.37-.454-.987-.682-1.848-.682-.849 0-1.46.228-1.831.682-.37.44-.555 1.21-.555 2.315 0 1.106.185 1.885.557 2.338.37.44.98.659 1.831.659zm10.973 6.377a15.5 15.5 0 0 1-2.168-.158c-.73-.106-1.345-.258-1.847-.454v-2.295c.53.197 1.153.348 1.869.455.715.122 1.384.183 2.007.183.915 0 1.578-.061 1.989-.182.41-.106.616-.302.616-.59 0-.243-.093-.409-.28-.499-.17-.09-.542-.137-1.115-.137h-2.559c-1.684 0-2.525-.71-2.525-2.134 0-.439.105-.84.315-1.204.214-.363.552-.65 1.017-.863-1.073-.62-1.61-1.664-1.61-3.131 0-1.393.377-2.4 1.132-3.02.757-.635 1.878-.953 3.361-.953.304 0 .635.03.993.09.372.045.65.09.836.137l3.216-.008-.238 1.951-.99-.013c.41.438.615 1.05.615 1.837 0 1.106-.304 1.991-.914 2.656-.61.651-1.51.977-2.703.977-.211 0-.416-.007-.617-.022l-.577-.092c-.397.06-.733.166-1.01.318-.266.151-.4.356-.4.614 0 .348.271.522.815.522h2.664c.954 0 1.689.25 2.206.75.518.484.778 1.195.778 2.133 0 1.06-.418 1.847-1.254 2.362-.835.514-2.042.771-3.62.77zm.219-9.08c.795 0 1.345-.152 1.65-.453.319-.32.478-.849.478-1.59 0-.74-.16-1.278-.478-1.612-.305-.333-.855-.5-1.65-.5-.755 0-1.299.167-1.63.5-.332.318-.497.854-.497 1.613 0 .695.152 1.21.458 1.542.317.333.873.499 1.669.499zm7.134-7.65v-2.407h2.925v2.406zm.22 12.736v-8.493H95.03l.238-2.268h3.857v10.76zm9.783.227c-1.683 0-2.976-.477-3.876-1.431-.888-.954-1.333-2.347-1.333-4.178 0-1.89.477-3.299 1.43-4.222.97-.923 2.256-1.384 3.86-1.384.661 0 1.23.052 1.707.157.478.107.942.281 1.395.522v2.204a4.664 4.664 0 0 0-1.154-.432 6.059 6.059 0 0 0-1.41-.16c-1.009 0-1.779.243-2.309.728-.53.469-.795 1.332-.795 2.59 0 1.15.238 1.99.715 2.518.491.53 1.28.794 2.368.794a5.72 5.72 0 0 0 1.35-.158 4.978 4.978 0 0 0 1.253-.478v2.27c-.888.44-1.954.66-3.199.66zm9.265-.227V16.82h2.684v12.26h6.301v2.36zm13.42.227a3.886 3.886 0 0 1-1.672-.365 3.167 3.167 0 0 1-1.233-1.113c-.304-.498-.456-1.118-.456-1.86 0-1.06.325-1.907.975-2.542.662-.635 1.637-.953 2.925-.953h2.78v-.295c0-.667-.166-1.137-.496-1.41-.32-.27-.969-.407-1.95-.407-1.072 0-2.106.19-3.1.568v-2.16c.436-.197.965-.356 1.59-.476a9.898 9.898 0 0 1 2.068-.205c1.417 0 2.51.333 3.279.998.783.651 1.175 1.703 1.175 3.157v6.833h-2.326l-.141-.976a3.815 3.815 0 0 1-1.368.884c-.546.213-1.229.32-2.05.32zm.737-2.02c.594 0 1.11-.114 1.548-.342a2.862 2.862 0 0 0 1.032-.863V26.74h-2.721c-1.047 0-1.57.493-1.57 1.477 0 .954.57 1.431 1.708 1.431zm12.858 2.02c-.659 0-1.234-.098-1.725-.295a4.407 4.407 0 0 1-1.354-.932l-.138 1h-2.324v-15.3h2.684v5.128a4.22 4.22 0 0 1 1.292-.613 5.405 5.405 0 0 1 1.49-.203c1.352 0 2.419.438 3.199 1.315.796.863 1.195 2.263 1.195 4.2 0 1.937-.39 3.375-1.172 4.315-.77.923-1.817 1.385-3.142 1.385zm-.753-2.248c.861 0 1.464-.288 1.81-.863.358-.575.536-1.438.536-2.588 0-1.196-.192-2.035-.576-2.52-.372-.5-.968-.749-1.789-.749a3.38 3.38 0 0 0-1.174.204 2.496 2.496 0 0 0-.914.59v4.95c.267.317.579.559.935.726a2.82 2.82 0 0 0 1.172.25zm10.159 2.248c-.702 0-1.37-.06-2.007-.184-.637-.105-1.146-.24-1.531-.408v-2.542c.463.212.986.378 1.57.5.583.106 1.12.16 1.61.16.664 0 1.128-.047 1.394-.138.277-.091.416-.295.416-.613 0-.363-.212-.627-.635-.795a71.405 71.405 0 0 0-1.853-.703c-.86-.332-1.522-.734-1.987-1.204-.463-.469-.694-1.164-.694-2.088 0-1.029.325-1.816.974-2.361.663-.56 1.722-.842 3.178-.842.585 0 1.136.054 1.653.161.518.09.956.204 1.313.34v2.524a4.248 4.248 0 0 0-1.234-.431 5.78 5.78 0 0 0-1.292-.16c-.57 0-1.027.045-1.372.136-.33.091-.497.288-.497.59 0 .333.18.569.537.705.372.136.942.34 1.711.61.755.258 1.344.539 1.768.842.425.303.723.666.894 1.09.172.408.26.922.26 1.543 0 2.18-1.393 3.27-4.176 3.27z" fill="#00c0cb" stroke="#00b5bf" stroke-width=".39"/></svg>